# xmcd
#
# Track frame offsets:
#        150
#        15356
#        33125
#        49813
#        65366
#        76034
#        88500
#        105316
#        121166
#        139108
#        150559
#        164031
#        176190
#
# Disc length: 2635 seconds
#
# Revision: 0
# Processed by: cddbd v1.5.1PL2 Copyright (c) Steve Scherf et al.
# Submitted via: ExactAudioCopy v0.95a4
#
DISCID=950a490d
DTITLE=Maritime - We,The Vehicles
DYEAR=2005
DGENRE=Rock
TTITLE0=Calm
TTITLE1=Tearning Up The Oxygen
TTITLE2=People,The Vehicles
TTITLE3=Parade Of Punk Rock T-Shirts
TTITLE4=We Don't Think,We Know
TTITLE5=No One Will Remember You Tonight
TTITLE6=Young Almuni
TTITLE7=Don't Say You Don't
TTITLE8=German Engineering
TTITLE9=Twins
TTITLE10=Protein And Poison
TTITLE11=Before You Were Born
TTITLE12=Call Me Home
EXTD=
EXTT0=
EXTT1=
EXTT2=
EXTT3=
EXTT4=
EXTT5=
EXTT6=
EXTT7=
EXTT8=
EXTT9=
EXTT10=
EXTT11=
EXTT12=
PLAYORDER=
